<svg width="172" height="49" viewBox="0 0 172 49" fill="none" xmlns="http://www.w3.org/2000/svg">
<path d="M7.56727 7.35394C6.94918 7.14973 6.39297 6.79212 5.95063 6.31454C5.50829 5.83697 5.19429 5.25503 5.03796 4.62313L4.84946 3.86587C4.80552 3.69017 4.70413 3.53418 4.5614 3.42269C4.41866 3.31119 4.24277 3.25058 4.06165 3.25049C3.88053 3.2504 3.70458 3.31082 3.56173 3.42217C3.41888 3.53352 3.31733 3.6894 3.27321 3.86506L3.0839 4.62231C2.92741 5.25423 2.61336 5.8362 2.17106 6.31388C1.72875 6.79157 1.17262 7.14939 0.554585 7.35394C0.393015 7.40815 0.252557 7.51175 0.153046 7.65011C0.0535352 7.78846 0 7.95458 0 8.125C0 8.29542 0.0535352 8.46154 0.153046 8.59989C0.252557 8.73825 0.393015 8.84185 0.554585 8.89606C1.17277 9.10034 1.72905 9.45808 2.1714 9.9358C2.61374 10.4135 2.92769 10.9956 3.0839 11.6277L3.27321 12.3849C3.31722 12.5606 3.41869 12.7166 3.56148 12.828C3.70427 12.9395 3.88021 13 4.06133 13C4.43346 13 4.75846 12.7457 4.84946 12.3841L5.03715 11.6277C5.19364 10.9956 5.50779 10.4136 5.95025 9.93588C6.39271 9.45818 6.94905 9.10043 7.56727 8.89606C7.72924 8.84226 7.87015 8.73881 7.97001 8.60041C8.06987 8.462 8.12361 8.29567 8.12361 8.125C8.12361 7.95433 8.06987 7.788 7.97001 7.64959C7.87015 7.51119 7.72924 7.40774 7.56727 7.35394ZM48.1923 39.0414C47.5741 38.8372 47.0178 38.4794 46.5755 38.0017C46.1331 37.524 45.8192 36.9419 45.663 36.3098L45.4736 35.5526C45.4296 35.3769 45.3281 35.2209 45.1854 35.1095C45.0426 34.9981 44.8666 34.9376 44.6855 34.9376C44.5044 34.9376 44.3285 34.9981 44.1857 35.1095C44.0429 35.2209 43.9414 35.3769 43.8974 35.5526L43.7081 36.3098C43.5516 36.9417 43.2375 37.5237 42.7952 38.0014C42.3529 38.4791 41.7968 38.8369 41.1788 39.0414C41.0172 39.0957 40.8767 39.1992 40.7772 39.3376C40.6777 39.476 40.6242 39.6421 40.6242 39.8125C40.6242 39.9829 40.6777 40.149 40.7772 40.2874C40.8767 40.4258 41.0172 40.5293 41.1788 40.5836C41.797 40.7878 42.3532 41.1456 42.7956 41.6233C43.2379 42.101 43.5519 42.6831 43.7081 43.3152L43.8974 44.0724C43.9414 44.2481 44.0429 44.4041 44.1857 44.5155C44.3285 44.6269 44.5044 44.6874 44.6855 44.6874C44.8666 44.6874 45.0426 44.6269 45.1854 44.5155C45.3281 44.4041 45.4296 44.2481 45.4736 44.0724L45.663 43.3152C45.8194 42.6833 46.1335 42.1013 46.5758 41.6236C47.0181 41.1459 47.5742 40.7881 48.1923 40.5836C48.3538 40.5293 48.4943 40.4258 48.5938 40.2874C48.6933 40.149 48.7469 39.9829 48.7469 39.8125C48.7469 39.6421 48.6933 39.476 48.5938 39.3376C48.4943 39.1992 48.3538 39.0957 48.1923 39.0414ZM6.51427 23.5625H6.50615C6.05765 23.5625 5.69771 23.9265 5.69771 24.375C5.69771 24.8235 6.06577 25.1875 6.51427 25.1875C6.72976 25.1875 6.93642 25.1019 7.0888 24.9495C7.24117 24.7972 7.32677 24.5905 7.32677 24.375C7.32677 24.1595 7.24117 23.9528 7.0888 23.8005C6.93642 23.6481 6.72976 23.5625 6.51427 23.5625ZM35.7643 47.125H35.7561C35.3076 47.125 34.9477 47.489 34.9477 47.9375C34.9477 48.386 35.3158 48.75 35.7643 48.75C35.9798 48.75 36.1864 48.6644 36.3388 48.512C36.4912 48.3597 36.5768 48.153 36.5768 47.9375C36.5768 47.722 36.4912 47.5153 36.3388 47.363C36.1864 47.2106 35.9798 47.125 35.7643 47.125ZM43.0768 17.875C43.2923 17.875 43.4989 17.7894 43.6513 17.637C43.8037 17.4847 43.8893 17.278 43.8893 17.0625C43.8893 16.847 43.8037 16.6403 43.6513 16.488C43.4989 16.3356 43.2923 16.25 43.0768 16.25H43.0686C42.6201 16.25 42.2602 16.614 42.2602 17.0625C42.2602 17.511 42.6283 17.875 43.0768 17.875ZM13.0143 1.625C13.2298 1.625 13.4364 1.5394 13.5888 1.38702C13.7412 1.23465 13.8268 1.02799 13.8268 0.8125C13.8268 0.597012 13.7412 0.390349 13.5888 0.237976C13.4364 0.0856024 13.2298 0 13.0143 0H13.0061C12.5576 0 12.1977 0.364 12.1977 0.8125C12.1977 1.261 12.5658 1.625 13.0143 1.625ZM36.268 17.1194C31.7261 18.8825 27.9805 21.8888 25.3561 25.6831C26.6777 27.7849 27.6799 30.0713 28.3299 32.4675C28.403 32.3375 28.4761 32.2156 28.5493 32.0856C28.6027 31.9919 28.6742 31.9097 28.7597 31.8439C28.8452 31.7782 28.943 31.7301 29.0473 31.7025C29.1516 31.6748 29.2603 31.6683 29.3672 31.6831C29.474 31.698 29.5768 31.734 29.6696 31.789C29.7624 31.8441 29.8433 31.917 29.9076 32.0037C29.9719 32.0903 30.0183 32.1889 30.0441 32.2936C30.0699 32.3984 30.0746 32.5072 30.0579 32.6138C30.0412 32.7204 30.0034 32.8225 29.9468 32.9144C29.5568 33.5644 29.1993 34.2306 28.8824 34.905C29.1261 36.3187 29.248 37.7731 29.248 39.2519C29.248 40.7388 28.6549 42.0794 27.688 43.0625C32.5955 42.9569 36.5605 38.9269 36.5605 33.995C36.5605 32.9063 36.3655 31.8337 35.9836 30.81C34.8233 27.721 34.861 24.3095 36.0893 21.2469L37.3161 18.1756C37.438 17.875 37.3649 17.5337 37.1374 17.3062C37.0268 17.1932 36.8855 17.1151 36.7308 17.0819C36.5762 17.0487 36.4153 17.0617 36.268 17.1194Z" fill="black"/>
<path d="M12.478 17.4944C12.331 17.4352 12.1696 17.4213 12.0147 17.4547C11.8598 17.488 11.7183 17.5669 11.6086 17.6812C11.3811 17.9087 11.308 18.25 11.4299 18.5506L12.6568 21.6219C13.885 24.6845 13.9227 28.096 12.7624 31.185C12.3805 32.2087 12.1855 33.2813 12.1855 34.37C12.1855 39.3669 16.2561 43.4375 21.253 43.4375H21.9274L21.7161 41.7394C21.3424 38.7331 20.3593 35.8894 18.7993 33.2894C18.7426 33.1975 18.7049 33.0954 18.6882 32.9888C18.6714 32.8822 18.6761 32.7734 18.7019 32.6686C18.7277 32.5639 18.7741 32.4653 18.8384 32.3787C18.9027 32.292 18.9836 32.2191 19.0764 32.164C19.1692 32.109 19.272 32.073 19.3789 32.0581C19.4857 32.0433 19.5945 32.0498 19.6988 32.0775C19.8031 32.1051 19.9008 32.1532 19.9863 32.2189C20.0718 32.2847 20.1434 32.3669 20.1968 32.4606C21.8705 35.2475 22.9268 38.3025 23.333 41.5362L23.5524 43.34C23.5605 43.3725 23.5605 43.3969 23.5605 43.4375H23.8124C25.9168 43.4375 27.623 41.7313 27.623 39.6269C27.623 29.7631 21.6755 21.0694 12.478 17.4944ZM24.373 45.03C24.1861 45.0544 23.9993 45.0625 23.8124 45.0625H21.5943L21.9518 46.85C22.0249 47.2238 22.358 47.5 22.748 47.5H25.998C26.388 47.5 26.7211 47.2238 26.7943 46.85L27.1518 45.0625H24.9336C24.7468 45.0625 24.5599 45.0544 24.373 45.03ZM19.5655 17.4375H16.1814C17.3522 18.0802 18.4564 18.8098 19.4907 19.6142C19.498 18.8878 19.5256 18.1623 19.5655 17.4375ZM20.2285 11.75H17.6309C17.2118 13.0919 16.8351 14.4468 16.5015 15.8125H19.6841C19.8068 14.4524 19.9871 13.0971 20.2285 11.75ZM29.2545 19.6247C30.3027 18.8091 31.4139 18.0777 32.5776 17.4375H29.1798C29.2204 18.1663 29.2472 18.8951 29.2545 19.6247ZM21.8819 11.75C21.6326 13.095 21.4436 14.4506 21.3156 15.8125H27.4313C27.3033 14.4506 27.1143 13.095 26.865 11.75H21.8819ZM29.062 15.8125H32.2445C31.9121 14.4467 31.5363 13.0919 31.1176 11.75H28.5176C28.7581 13.0971 28.9385 14.4524 29.062 15.8125ZM26.5318 10.125C26.3697 9.3897 26.1896 8.6585 25.9915 7.93206L24.373 2L22.7545 7.93206C22.556 8.65837 22.3758 9.38959 22.2142 10.125H26.5318ZM21.188 7.49981L22.5189 2.67437C20.8151 3.91994 19.3558 6.77019 18.1712 10.125H20.5486C20.7379 9.24587 20.9483 8.36919 21.188 7.49981ZM21.1246 21.0068C22.3225 22.1115 23.4104 23.3297 24.373 24.6444C25.3366 23.3332 26.4245 22.1181 27.6214 21.0157C27.6458 19.8222 27.6214 18.6286 27.5531 17.4375H21.1921C21.1226 18.6259 21.0999 19.8166 21.1238 21.0068H21.1246ZM28.1966 10.125H30.5773C29.3926 6.76937 27.9318 3.91912 26.2271 2.67356L27.5588 7.49981C27.7985 8.36919 28.0073 9.24587 28.1966 10.125Z" fill="black"/>
<path d="M59.56 27.8L59.38 24.06L66.08 17H69.68L63.64 23.5L61.84 25.42L59.56 27.8ZM56.66 31V17H59.88V31H56.66ZM66.24 31L61.26 24.9L63.38 22.6L70.02 31H66.24ZM75.4527 31.16C74.5593 31.16 73.7593 30.9867 73.0527 30.64C72.3593 30.2933 71.8193 29.7667 71.4327 29.06C71.046 28.34 70.8527 27.4267 70.8527 26.32V20.24H73.9727V25.86C73.9727 26.7533 74.1593 27.4133 74.5327 27.84C74.9193 28.2533 75.4593 28.46 76.1527 28.46C76.6327 28.46 77.0593 28.36 77.4327 28.16C77.806 27.9467 78.0993 27.6267 78.3127 27.2C78.526 26.76 78.6327 26.2133 78.6327 25.56V20.24H81.7527V31H78.7927V28.04L79.3327 28.9C78.9727 29.6467 78.4393 30.2133 77.7327 30.6C77.0393 30.9733 76.2793 31.16 75.4527 31.16ZM87.2231 28.8L87.3031 25L92.3231 20.24H96.0431L91.2231 25.14L89.6031 26.46L87.2231 28.8ZM84.6431 31V16.16H87.7631V31H84.6431ZM92.6631 31L89.0231 26.48L90.9831 24.06L96.4431 31H92.6631ZM102.191 31.16C101.298 31.16 100.498 30.9867 99.7909 30.64C99.0976 30.2933 98.5576 29.7667 98.1709 29.06C97.7843 28.34 97.5909 27.4267 97.5909 26.32V20.24H100.711V25.86C100.711 26.7533 100.898 27.4133 101.271 27.84C101.658 28.2533 102.198 28.46 102.891 28.46C103.371 28.46 103.798 28.36 104.171 28.16C104.544 27.9467 104.838 27.6267 105.051 27.2C105.264 26.76 105.371 26.2133 105.371 25.56V20.24H108.491V31H105.531V28.04L106.071 28.9C105.711 29.6467 105.178 30.2133 104.471 30.6C103.778 30.9733 103.018 31.16 102.191 31.16ZM111.381 31V20.24H114.361V23.28L113.941 22.4C114.261 21.64 114.775 21.0667 115.481 20.68C116.188 20.28 117.048 20.08 118.061 20.08V22.96C117.928 22.9467 117.808 22.94 117.701 22.94C117.595 22.9267 117.481 22.92 117.361 22.92C116.508 22.92 115.815 23.1667 115.281 23.66C114.761 24.14 114.501 24.8933 114.501 25.92V31H111.381ZM124.535 31.16C123.641 31.16 122.841 30.9867 122.135 30.64C121.441 30.2933 120.901 29.7667 120.515 29.06C120.128 28.34 119.935 27.4267 119.935 26.32V20.24H123.055V25.86C123.055 26.7533 123.241 27.4133 123.615 27.84C124.001 28.2533 124.541 28.46 125.235 28.46C125.715 28.46 126.141 28.36 126.515 28.16C126.888 27.9467 127.181 27.6267 127.395 27.2C127.608 26.76 127.715 26.2133 127.715 25.56V20.24H130.835V31H127.875V28.04L128.415 28.9C128.055 29.6467 127.521 30.2133 126.815 30.6C126.121 30.9733 125.361 31.16 124.535 31.16ZM132.985 31V29.12L139.345 21.6L139.885 22.64H133.125V20.24H142.405V22.12L136.045 29.64L135.485 28.6H142.585V31H132.985ZM156.689 31.24C154.702 31.24 153.149 30.6867 152.029 29.58C150.909 28.4733 150.349 26.8933 150.349 24.84V17H153.589V24.72C153.589 26.0533 153.862 27.0133 154.409 27.6C154.955 28.1867 155.722 28.48 156.709 28.48C157.695 28.48 158.462 28.1867 159.009 27.6C159.555 27.0133 159.829 26.0533 159.829 24.72V17H163.029V24.84C163.029 26.8933 162.469 28.4733 161.349 29.58C160.229 30.6867 158.675 31.24 156.689 31.24ZM166.23 31V17H169.47V31H166.23Z" fill="black"/>
</svg>
